<svg width="320" height="42" viewBox="0 0 320 42" fill="none" xmlns="http://www.w3.org/2000/svg">
<g clip-path="url(#clip0_4_145)">
<path d="M87.1404 11.5928C81.0036 11.5928 78.9761 14.9266 78.4454 16.124C77.2616 13.702 74.9484 11.5928 70.4172 11.5928C66.2942 11.5928 64.0354 13.1032 62.8244 14.4504C62.2529 12.314 61.3412 11.484 61.3412 11.484L53.2449 11.4023C53.4218 11.6609 53.5579 11.933 53.7076 12.2052C53.7892 12.3685 53.8709 12.559 53.9661 12.7767C53.9797 12.8311 54.0069 12.8719 54.0205 12.9263C54.1294 13.1849 54.2247 13.4706 54.3335 13.7972C54.837 15.5117 54.9458 17.3623 54.8914 18.8863C54.8506 19.553 54.7689 20.2606 54.6329 21.009L50.7684 41.7055H59.3546L63.0693 21.3764C63.2462 20.6416 63.7361 19.172 64.8655 18.2876C66.9474 16.9949 68.9068 17.893 68.9068 17.893C68.9068 17.893 71.3969 18.7774 71.152 23.2406L67.791 41.7055H76.2411L79.5204 23.4311L79.8742 21.7302C79.8742 21.7302 80.3232 19.2673 81.8608 18.1379C83.8339 17.0901 85.63 17.9066 85.63 17.9066C85.63 17.9066 88.1201 18.791 87.8752 23.2542L84.5142 41.7191H92.9643L96.2436 23.4447C96.2436 23.4447 97.8901 11.6201 87.1404 11.6201V11.5928Z" fill="white"/>
<path d="M48.9449 20.6831C48.9177 20.4654 48.904 20.3293 48.904 20.3293C47.3256 9.47079 34.2355 11.6615 34.2355 11.6615C26.9965 12.4916 22.9007 15.8662 20.5875 19.3496C20.5875 19.3496 20.0568 20.0708 19.4309 21.3771C19.2812 21.6764 19.1588 21.9622 19.0363 22.2479L18.9955 22.3296C18.9274 22.4929 18.8594 22.6698 18.7914 22.833C18.3968 23.84 18.0022 25.0646 17.7164 26.4526C17.349 27.7316 17.2401 29.1196 17.2265 30.2762C17.2129 31.7457 17.349 32.8343 17.349 32.8343C18.9274 43.6928 32.0175 41.5021 32.0175 41.5021C39.7328 40.6176 43.8694 36.8484 46.101 33.1337C46.9038 31.8682 48.5639 28.7386 48.9585 24.4251C48.9857 24.1802 48.9993 23.9352 49.0129 23.6903C49.0129 23.5542 49.0129 23.4181 49.0265 23.2685C49.0265 22.9419 49.0265 22.6289 49.0265 22.3296C49.0265 22.1935 49.0265 22.0574 49.0265 21.9214C49.0129 21.3907 48.9721 20.9552 48.9449 20.6695V20.6831ZM41.2296 22.9555C41.2296 22.9555 41.2024 23.2413 41.148 23.7039C41.148 23.7039 41.148 23.7583 41.1343 23.84C41.0391 24.5748 40.8622 25.6633 40.5492 26.7111C40.2227 27.9629 39.7192 29.4053 38.998 30.6844C37.6509 33.297 35.2969 36.0864 31.3644 36.1409C31.3644 36.1409 25.282 36.6851 25.7718 29.1876C25.7718 29.1876 25.8127 28.5617 25.9623 27.6908C26.2209 25.6497 26.9965 23.6495 27.5816 22.3568C27.7449 21.9894 27.9354 21.6084 28.1395 21.2138C28.2347 21.0369 28.2892 20.9416 28.2892 20.9416C29.6771 18.4924 31.9767 16.0567 35.6371 16.0022C35.6371 16.0022 41.7195 15.458 41.2296 22.9555Z" fill="white"/>
<path d="M130.506 31.6369C130.711 30.5211 131.16 28.2351 131.418 26.9152C131.473 26.6703 131.513 26.4389 131.568 26.1804L131.622 25.9083C131.704 25.432 131.772 24.9422 131.813 24.4387C131.84 24.1938 131.854 23.9488 131.867 23.7039C131.867 23.5678 131.867 23.4318 131.881 23.2821C131.881 22.9555 131.881 22.6425 131.881 22.3432C131.881 22.2071 131.881 22.071 131.881 21.935C131.867 21.4043 131.826 20.9689 131.799 20.6831C131.772 20.4654 131.758 20.3293 131.758 20.3293C130.18 9.47079 117.09 11.6615 117.09 11.6615C109.851 12.4916 105.755 15.8662 103.442 19.3496C103.442 19.3496 102.911 20.0708 102.285 21.3771C102.135 21.6764 102.013 21.9622 101.891 22.2479L101.85 22.3296C101.782 22.4929 101.714 22.6698 101.646 22.833C101.251 23.84 100.856 25.0646 100.571 26.4526C100.203 27.7316 100.094 29.1196 100.081 30.2762C100.067 31.7457 100.203 32.8343 100.203 32.8343C101.782 43.6928 114.872 41.5021 114.872 41.5021C118.165 41.1211 120.791 40.223 122.914 39.0256C123.417 40.9306 124.111 41.679 124.111 41.679H131.894C130.017 39.6107 130.071 35.2292 130.52 31.6233L130.506 31.6369ZM124.084 22.9555C124.084 22.9555 124.057 23.2413 124.002 23.7039C124.002 23.7039 124.002 23.7583 123.989 23.84C123.893 24.5748 123.716 25.6633 123.403 26.7111C123.077 27.9629 122.573 29.4053 121.852 30.6844C120.505 33.297 118.151 36.0864 114.219 36.1409C114.219 36.1409 108.136 36.6851 108.626 29.1876C108.626 29.1876 108.667 28.5617 108.817 27.6908C109.075 25.6497 109.851 23.6495 110.436 22.3568C110.599 21.9894 110.79 21.6084 110.994 21.2138C111.089 21.0369 111.143 20.9416 111.143 20.9416C112.531 18.4924 114.831 16.0567 118.491 16.0022C118.491 16.0022 124.574 15.458 124.084 22.9555Z" fill="white"/>
<path d="M31.5687 5.7015L0 3.30664V9.44348H7.64723L1.48318 41.6925H10.0693L15.7163 9.44348H30.8747L31.5687 5.7015Z" fill="white"/>
<path d="M183.751 20.6831C183.724 20.4654 183.71 20.3293 183.71 20.3293C182.132 9.47079 169.042 11.6615 169.042 11.6615C161.803 12.4916 157.707 15.8662 155.394 19.3496C155.394 19.3496 154.863 20.0708 154.237 21.3771C154.087 21.6764 153.965 21.9622 153.842 22.2479L153.801 22.3296C153.733 22.4929 153.665 22.6698 153.597 22.833C153.203 23.84 152.808 25.0646 152.522 26.4526C152.155 27.7316 152.046 29.1196 152.033 30.2762C152.019 31.7457 152.155 32.8343 152.155 32.8343C153.733 43.6928 166.824 41.5021 166.824 41.5021C174.539 40.6176 178.675 36.8484 180.907 33.1337C181.71 31.8682 183.383 28.7386 183.764 24.4251C183.792 24.1802 183.805 23.9352 183.819 23.6903C183.819 23.5542 183.819 23.4181 183.833 23.2685C183.833 22.9419 183.833 22.6289 183.833 22.3296C183.833 22.1935 183.833 22.0574 183.833 21.9214C183.819 21.3907 183.778 20.9552 183.751 20.6695V20.6831ZM176.036 22.9555C176.036 22.9555 176.008 23.2413 175.954 23.7039C175.954 23.7039 175.954 23.7583 175.94 23.84C175.845 24.5748 175.668 25.6633 175.355 26.7111C175.029 27.9629 174.525 29.4053 173.804 30.6844C172.457 33.297 170.103 36.0864 166.17 36.1409C166.17 36.1409 160.088 36.6851 160.578 29.1876C160.578 29.1876 160.619 28.5617 160.768 27.6908C161.027 25.6497 161.803 23.6495 162.388 22.3568C162.551 21.9894 162.741 21.6084 162.946 21.2138C163.041 21.0369 163.095 20.9416 163.095 20.9416C164.483 18.4924 166.783 16.0567 170.443 16.0022C170.443 16.0022 176.525 15.458 176.036 22.9555Z" fill="white"/>
<path d="M165.762 5.7015L134.18 3.30664V9.44348H141.827L135.663 41.6925H144.249L149.91 9.44348H165.055L165.762 5.7015Z" fill="white"/>
<path d="M192.8 2.78947C192.8 2.69422 192.786 2.63979 192.786 2.63979C192.61 1.38793 192.052 0.557894 191.344 0C186.772 0.557894 185.398 4.00051 185.398 4.00051L185.302 4.1774L185.207 4.43594V4.24544C185.888 2.20436 183.942 1.27907 182.159 0.870859C181.669 1.29268 181.275 1.75533 180.962 2.21797C180.962 2.21797 180.744 2.51733 180.472 3.06161C180.417 3.18408 180.349 3.30654 180.309 3.42901V3.46983C180.268 3.53787 180.241 3.6059 180.213 3.67394C180.05 4.09576 179.887 4.59923 179.764 5.18433C179.615 5.71501 179.56 6.30012 179.56 6.77637C179.56 7.3887 179.615 7.85134 179.615 7.85134C180.268 12.3825 185.738 11.4709 185.738 11.4709C188.963 11.1035 190.691 9.52502 191.616 7.97381C191.956 7.44313 192.65 6.13684 192.814 4.34069C192.814 4.23183 192.827 4.13658 192.841 4.04133C192.841 3.9869 192.841 3.91887 192.841 3.86444C192.841 3.72837 192.841 3.59229 192.841 3.46983C192.841 3.4154 192.841 3.36097 192.841 3.29294C192.841 3.07522 192.814 2.88472 192.814 2.77586L192.8 2.78947ZM185.221 9.23927H185.452C185.452 9.23927 185.357 9.23927 185.221 9.23927Z" fill="#48CA45"/>
<path d="M203.114 38.3178L205.767 35.1201C207.427 36.6577 209.618 37.6919 211.646 37.6919C214.054 37.6919 215.333 36.6577 215.333 35.0249C215.333 33.3104 213.918 32.7661 211.863 31.8952L208.761 30.5889C206.421 29.6228 204.067 27.745 204.067 24.3568C204.067 20.574 207.387 17.6621 212.081 17.6621C214.775 17.6621 217.47 18.7235 219.334 20.6285L216.993 23.5404C215.524 22.3158 213.986 21.6354 212.081 21.6354C210.04 21.6354 208.761 22.5471 208.761 24.0711C208.761 25.7312 210.394 26.3299 212.353 27.1055L215.388 28.3846C218.204 29.5412 220.055 31.3237 220.055 34.6711C220.055 38.4539 216.898 41.6788 211.55 41.6788C208.448 41.6788 205.359 40.4541 203.1 38.3042L203.114 38.3178Z" fill="#8D94A3"/>
<path d="M224.055 30.8338V18.0703H228.682V31.2421C228.682 36.059 230.369 37.6919 233.063 37.6919C235.758 37.6919 237.567 36.059 237.567 31.2421V18.0703H242.003V30.8338C242.003 38.5355 238.724 41.6924 233.05 41.6924C227.376 41.6924 224.042 38.5355 224.042 30.8338H224.055Z" fill="#8D94A3"/>
<path d="M247.596 18.0703H255.202C260.332 18.0703 264.278 19.8801 264.278 25.3638C264.278 30.8475 260.305 33.0246 255.325 33.0246H252.222V41.2569H247.596V18.0703ZM255.012 29.3643C258.209 29.3643 259.733 28.0172 259.733 25.3638C259.733 22.7104 258.046 21.7715 254.848 21.7715H252.222V29.3779H255.012V29.3643Z" fill="#8D94A3"/>
<path d="M268.469 18.0703H276.076C281.206 18.0703 285.152 19.8801 285.152 25.3638C285.152 30.8475 281.178 33.0246 276.198 33.0246H273.096V41.2569H268.469V18.0703ZM275.885 29.3643C279.083 29.3643 280.607 28.0172 280.607 25.3638C280.607 22.7104 278.92 21.7715 275.722 21.7715H273.096V29.3779H275.885V29.3643Z" fill="#8D94A3"/>
<path d="M289.343 18.0703H293.969V37.3789H303.385V41.2569H289.343V18.0703Z" fill="#8D94A3"/>
<path d="M308.393 32.7797L301.453 18.0703H306.365L308.678 23.7309C309.332 25.4454 309.958 27.0783 310.679 28.8608H310.801C311.522 27.0783 312.216 25.4454 312.869 23.7309L315.183 18.0703H320L313.019 32.7797V41.2569H308.393V32.7797Z" fill="#8D94A3"/>
</g>
<defs>
<clipPath id="clip0_4_145">
<rect width="320" height="41.6924" fill="white"/>
</clipPath>
</defs>
</svg>
