<svg width="30" height="30" viewBox="0 0 30 30" fill="none" xmlns="http://www.w3.org/2000/svg">
<path d="M15 30C6.73 30 0 23.27 0 15C0 6.73 6.73 0 15 0C23.27 0 30 6.73 30 15C30 23.27 23.27 30 15 30ZM15 2C7.83 2 2 7.83 2 15C2 22.17 7.83 28 15 28C22.17 28 28 22.17 28 15C28 7.83 22.17 2 15 2Z" fill="#A0A0A0"/>
<path d="M11.9999 21.0001C11.9999 21.0001 11.9299 21.0001 11.8999 21.0001C11.5999 20.9701 11.3299 20.8101 11.1699 20.5601L7.16994 14.5601C6.85994 14.1001 6.98994 13.4801 7.44994 13.1701C7.90994 12.8601 8.52994 12.9901 8.83994 13.4501L12.1599 18.4301L21.2999 9.29006C21.6899 8.90006 22.3199 8.90006 22.7099 9.29006C23.0999 9.68006 23.0999 10.3101 22.7099 10.7001L12.7099 20.7001C12.5199 20.8901 12.2699 20.9901 11.9999 20.9901V21.0001Z" fill="#A0A0A0"/>
</svg>
