<svg width="20" height="20" viewBox="0 0 20 20" fill="none" xmlns="http://www.w3.org/2000/svg">
<path d="M7.99994 13.9996C7.99994 13.9996 7.92994 13.9996 7.89994 13.9996C7.59994 13.9696 7.32994 13.8096 7.16994 13.5596L5.16994 10.5596C4.85994 10.0996 4.98994 9.47957 5.44994 9.16957C5.90994 8.85957 6.52994 8.98957 6.83994 9.44957L8.15994 11.4296L13.2999 6.28957C13.6899 5.89957 14.3199 5.89957 14.7099 6.28957C15.0999 6.67957 15.0999 7.30957 14.7099 7.69957L8.70994 13.6996C8.51994 13.8896 8.26994 13.9896 7.99994 13.9896V13.9996Z" fill="#8D94A3"/>
<path d="M10 20C4.49 20 0 15.51 0 10C0 4.49 4.49 0 10 0C15.51 0 20 4.49 20 10C20 15.51 15.51 20 10 20ZM10 2C5.59 2 2 5.59 2 10C2 14.41 5.59 18 10 18C14.41 18 18 14.41 18 10C18 5.59 14.41 2 10 2Z" fill="#8D94A3"/>
</svg>
