<svg width="22" height="25" viewBox="0 0 22 25" fill="none" xmlns="http://www.w3.org/2000/svg">
<g clip-path="url(#clip0_295_74690)">
<path d="M13 24.5H15C15.5523 24.5 16 24.0523 16 23.5L16 8.5C16 7.94772 15.5523 7.5 15 7.5H13C12.4477 7.5 12 7.94772 12 8.5L12 23.5C12 24.0523 12.4477 24.5 13 24.5Z" fill="#3C3C3C"/>
<path d="M19 24.5H21C21.5523 24.5 22 24.0523 22 23.5V14.5C22 13.9477 21.5523 13.5 21 13.5H19C18.4477 13.5 18 13.9477 18 14.5V23.5C18 24.0523 18.4477 24.5 19 24.5Z" fill="#3C3C3C"/>
<path d="M1 24.5H3C3.55228 24.5 4 24.0523 4 23.5L4 8.5C4 7.94772 3.55228 7.5 3 7.5H1C0.447715 7.5 0 7.94772 0 8.5L0 23.5C0 24.0523 0.447715 24.5 1 24.5Z" fill="#3C3C3C"/>
<path d="M7 24.5H9C9.55228 24.5 10 24.0523 10 23.5L10 14.5C10 13.9477 9.55228 13.5 9 13.5H7C6.44772 13.5 6 13.9477 6 14.5L6 23.5C6 24.0523 6.44772 24.5 7 24.5Z" fill="#3C3C3C"/>
<path d="M20 6C19.77 6 19.55 6.06 19.36 6.15L15.35 2.14C15.44 1.94 15.5 1.73 15.5 1.5C15.5 0.67 14.83 0 14 0C13.17 0 12.5 0.67 12.5 1.5C12.5 1.73 12.56 1.95 12.65 2.14L8.64 6.15C8.44 6.06 8.23 6 8 6C7.77 6 7.55 6.06 7.36 6.15L3.35 2.14C3.44 1.94 3.5 1.73 3.5 1.5C3.5 0.67 2.83 0 2 0C1.17 0 0.5 0.67 0.5 1.5C0.5 2.33 1.17 3 2 3C2.23 3 2.45 2.94 2.64 2.85L6.65 6.86C6.56 7.06 6.5 7.27 6.5 7.5C6.5 8.33 7.17 9 8 9C8.83 9 9.5 8.33 9.5 7.5C9.5 7.27 9.44 7.05 9.35 6.86L13.36 2.85C13.56 2.94 13.77 3 14 3C14.23 3 14.45 2.94 14.64 2.85L18.65 6.86C18.56 7.06 18.5 7.27 18.5 7.5C18.5 8.33 19.17 9 20 9C20.83 9 21.5 8.33 21.5 7.5C21.5 6.67 20.83 6 20 6ZM1.5 1.5C1.5 1.22 1.72 1 2 1C2.28 1 2.5 1.22 2.5 1.5C2.5 1.78 2.28 2 2 2C1.72 2 1.5 1.78 1.5 1.5ZM8 8C7.72 8 7.5 7.78 7.5 7.5C7.5 7.22 7.72 7 8 7C8.28 7 8.5 7.22 8.5 7.5C8.5 7.78 8.28 8 8 8ZM13.5 1.5C13.5 1.22 13.72 1 14 1C14.28 1 14.5 1.22 14.5 1.5C14.5 1.78 14.28 2 14 2C13.72 2 13.5 1.78 13.5 1.5ZM20 8C19.72 8 19.5 7.78 19.5 7.5C19.5 7.22 19.72 7 20 7C20.28 7 20.5 7.22 20.5 7.5C20.5 7.78 20.28 8 20 8Z" fill="#3C3C3C"/>
</g>
<defs>
<clipPath id="clip0_295_74690">
<rect width="22" height="24.5" fill="white"/>
</clipPath>
</defs>
</svg>
