<svg width="21" height="23" viewBox="0 0 21 23" fill="none" xmlns="http://www.w3.org/2000/svg">
<path d="M5 7H1V5H5V1H7V5C7 6.1 6.1 7 5 7Z" fill="#787878"/>
<path d="M6.26 18H2V5.41L5.41 2H13V8.07C13.33 8.03 13.66 8 14 8C14.34 8 14.67 8.03 15 8.07V2C15 0.9 14.1 0 13 0H5.41C4.88 0 4.37 0.21 4 0.59L0.59 4C0.21 4.38 0 4.88 0 5.41V18C0 19.1 0.9 20 2 20H7.08C6.72 19.38 6.45 18.71 6.26 18Z" fill="#787878"/>
<path d="M21 16C21 12.13 17.87 9 14 9C10.13 9 7 12.13 7 16C7 19.87 10.13 23 14 23C17.87 23 21 19.87 21 16ZM13.65 20.65L10.86 17.86C10.54 17.54 10.77 17.01 11.21 17.01H12.98V12.56C12.98 12.01 13.43 11.56 13.98 11.56C14.53 11.56 14.98 12.01 14.98 12.56V17.01H16.8C17.25 17.01 17.47 17.55 17.15 17.86L14.36 20.65C14.16 20.85 13.85 20.85 13.65 20.65Z" fill="#787878"/>
</svg>
