<svg width="14" height="16" viewBox="0 0 14 16" fill="none" xmlns="http://www.w3.org/2000/svg">
<g clip-path="url(#clip0_4_4337)">
<path d="M6.99973 8C4.85528 8 3.11084 6.31786 3.11084 4.25C3.11084 2.18214 4.85528 0.5 6.99973 0.5C9.14417 0.5 10.8886 2.18214 10.8886 4.25C10.8886 6.31786 9.14417 8 6.99973 8ZM6.99973 1.57143C5.4664 1.57143 4.22195 2.77143 4.22195 4.25C4.22195 5.72857 5.4664 6.92857 6.99973 6.92857C8.53306 6.92857 9.77751 5.72857 9.77751 4.25C9.77751 2.77143 8.53306 1.57143 6.99973 1.57143Z" fill="#C9CCD3"/>
<path d="M13.1108 15.5001C12.8052 15.5001 12.5552 15.2591 12.5552 14.9644C12.5552 11.1234 10.0608 8.00014 6.99967 8.00014C3.93856 8.00014 1.44412 11.1234 1.44412 14.9644C1.44412 15.2591 1.19412 15.5001 0.888563 15.5001C0.583008 15.5001 0.333008 15.2591 0.333008 14.9644C0.333008 10.5341 3.3219 6.92871 6.99967 6.92871C10.6775 6.92871 13.6663 10.5341 13.6663 14.9644C13.6663 15.2591 13.4163 15.5001 13.1108 15.5001Z" fill="#C9CCD3"/>
</g>
<defs>
<clipPath id="clip0_4_4337">
<rect width="13.3333" height="15" fill="white" transform="translate(0.333008 0.5)"/>
</clipPath>
</defs>
</svg>
