<svg width="17" height="14" viewBox="0 0 17 14" fill="none" xmlns="http://www.w3.org/2000/svg">
<g clip-path="url(#clip0_14_8364)">
<path d="M7 14C6.06 14 5.14 13.81 4.27 13.45C3.44 13.1 2.69 12.59 2.05 11.95C1.41 11.31 0.9 10.56 0.55 9.72C0.18 8.86 0 7.94 0 7C0 6.06 0.19 5.14 0.55 4.27C0.9 3.44 1.41 2.69 2.05 2.05C2.69 1.41 3.44 0.9 4.28 0.55C5.14 0.18 6.06 0 7 0C7.55 0 8 0.45 8 1C8 1.55 7.55 2 7 2C6.32 2 5.67 2.13 5.05 2.39C4.45 2.64 3.92 3 3.46 3.46C3 3.92 2.64 4.45 2.39 5.05C2.13 5.67 2 6.32 2 7C2 7.68 2.13 8.33 2.39 8.95C2.64 9.55 3 10.08 3.46 10.54C3.92 11 4.45 11.36 5.05 11.61C6.28 12.13 7.71 12.13 8.94 11.61C9.54 11.36 10.07 11 10.53 10.54C10.99 10.08 11.35 9.55 11.6 8.95C11.86 8.33 11.99 7.68 11.99 7C11.99 6.45 12.44 6 12.99 6C13.54 6 13.99 6.45 13.99 7C13.99 7.94 13.8 8.86 13.44 9.73C13.09 10.56 12.58 11.31 11.94 11.95C11.3 12.59 10.55 13.1 9.71 13.45C8.85 13.82 7.93 14 6.99 14H7Z" fill="#787878"/>
<path d="M15.7898 6.99996H10.1998C9.74978 6.99996 9.52978 6.45996 9.84978 6.14996L12.6398 3.35996C12.8398 3.15996 13.1498 3.15996 13.3498 3.35996L16.1398 6.14996C16.4498 6.45996 16.2298 6.99996 15.7898 6.99996Z" fill="#787878"/>
</g>
<defs>
<clipPath id="clip0_14_8364">
<rect width="16.29" height="14" fill="white"/>
</clipPath>
</defs>
</svg>
