<svg width="18" height="14" viewBox="0 0 18 14" fill="none" xmlns="http://www.w3.org/2000/svg">
<g clip-path="url(#clip0_389_60697)">
<path d="M7.36275 0H5.72638C5.27452 0 4.9082 0.366312 4.9082 0.818182V13.0909C4.9082 13.5428 5.27452 13.9091 5.72638 13.9091H7.36275C7.81462 13.9091 8.18093 13.5428 8.18093 13.0909V0.818182C8.18093 0.366312 7.81462 0 7.36275 0Z" fill="#fff"/>
<path d="M2.45455 4.90918H0.818182C0.366312 4.90918 0 5.27549 0 5.72736V13.091C0 13.5429 0.366312 13.9092 0.818182 13.9092H2.45455C2.90641 13.9092 3.27273 13.5429 3.27273 13.091V5.72736C3.27273 5.27549 2.90641 4.90918 2.45455 4.90918Z" fill="#fff"/>
<path d="M17.1811 0H15.5447C15.0929 0 14.7266 0.366312 14.7266 0.818182V13.0909C14.7266 13.5428 15.0929 13.9091 15.5447 13.9091H17.1811C17.633 13.9091 17.9993 13.5428 17.9993 13.0909V0.818182C17.9993 0.366312 17.633 0 17.1811 0Z" fill="#fff"/>
<path d="M12.2729 4.90918H10.6365C10.1847 4.90918 9.81836 5.27549 9.81836 5.72736V13.091C9.81836 13.5429 10.1847 13.9092 10.6365 13.9092H12.2729C12.7248 13.9092 13.0911 13.5429 13.0911 13.091V5.72736C13.0911 5.27549 12.7248 4.90918 12.2729 4.90918Z" fill="#fff"/>
</g>
<defs>
<clipPath id="clip0_389_60697">
<rect width="18" height="13.9091" fill="white"/>
</clipPath>
</defs>
</svg>
