<svg width="17" height="17" viewBox="0 0 17 17" fill="none" xmlns="http://www.w3.org/2000/svg">
<g clip-path="url(#clip0_4_464)">
<path d="M7 14C3.14 14 0 10.86 0 7C0 3.14 3.14 0 7 0C10.86 0 14 3.14 14 7C14 10.86 10.86 14 7 14ZM7 2C4.24 2 2 4.24 2 7C2 9.76 4.24 12 7 12C9.76 12 12 9.76 12 7C12 4.24 9.76 2 7 2Z" fill="#3C3C3C"/>
<path d="M16.0001 16.9998C15.7401 16.9998 15.4901 16.8998 15.2901 16.7098L11.2901 12.7098C10.9001 12.3198 10.9001 11.6898 11.2901 11.2998C11.6801 10.9098 12.3101 10.9098 12.7001 11.2998L16.7001 15.2998C17.0901 15.6898 17.0901 16.3198 16.7001 16.7098C16.5001 16.9098 16.2501 16.9998 15.9901 16.9998H16.0001Z" fill="#3C3C3C"/>
</g>
<defs>
<clipPath id="clip0_4_464">
<rect width="17" height="17" fill="white"/>
</clipPath>
</defs>
</svg>
