<svg width="12" height="15" viewBox="0 0 12 15" fill="none" xmlns="http://www.w3.org/2000/svg">
<path d="M10.5 1H9.5V0.5C9.5 0.22 9.28 0 9 0C8.72 0 8.5 0.22 8.5 0.5V1H7.5V0.5C7.5 0.22 7.28 0 7 0C6.72 0 6.5 0.22 6.5 0.5V1H5.5V0.5C5.5 0.22 5.28 0 5 0C4.72 0 4.5 0.22 4.5 0.5V1H3.5V0.5C3.5 0.22 3.28 0 3 0C2.72 0 2.5 0.22 2.5 0.5V1H1.5C0.67 1 0 1.67 0 2.5V13.5C0 14.33 0.67 15 1.5 15H10.5C11.33 15 12 14.33 12 13.5V2.5C12 1.67 11.33 1 10.5 1ZM10.5 14H1.5C1.22 14 1 13.78 1 13.5V2.5C1 2.22 1.22 2 1.5 2H2.5V2.5C2.5 2.78 2.72 3 3 3C3.28 3 3.5 2.78 3.5 2.5V2H4.5V2.5C4.5 2.78 4.72 3 5 3C5.28 3 5.5 2.78 5.5 2.5V2H6.5V2.5C6.5 2.78 6.72 3 7 3C7.28 3 7.5 2.78 7.5 2.5V2H8.5V2.5C8.5 2.78 8.72 3 9 3C9.28 3 9.5 2.78 9.5 2.5V2H10.5C10.78 2 11 2.22 11 2.5V13.5C11 13.78 10.78 14 10.5 14Z" fill="#fff"/>
<path d="M9 5H3C2.72 5 2.5 5.22 2.5 5.5C2.5 5.78 2.72 6 3 6H9C9.28 6 9.5 5.78 9.5 5.5C9.5 5.22 9.28 5 9 5Z" fill="#fff"/>
<path d="M9 8H3C2.72 8 2.5 8.22 2.5 8.5C2.5 8.78 2.72 9 3 9H9C9.28 9 9.5 8.78 9.5 8.5C9.5 8.22 9.28 8 9 8Z" fill="#fff"/>
<path d="M9 11H3C2.72 11 2.5 11.22 2.5 11.5C2.5 11.78 2.72 12 3 12H9C9.28 12 9.5 11.78 9.5 11.5C9.5 11.22 9.28 11 9 11Z" fill="#fff"/>
</svg>
