<svg width="22" height="25" viewBox="0 0 22 25" fill="none" xmlns="http://www.w3.org/2000/svg">
<path d="M18 0H8.83C8.03 0 7.28 0.31 6.71 0.88L2.88 4.71C2.31 5.28 2 6.03 2 6.83V23C2 24.1 2.9 25 4 25H18C19.1 25 20 24.1 20 23V2C20 0.9 19.1 0 18 0ZM8 2.41V6H4.41L8 2.41ZM18 23H4V8H8C9.1 8 10 7.1 10 6V2H18V23Z" fill="#3C3C3C"/>
<path d="M15.5 14H6.5C5.95 14 5.5 14.45 5.5 15C5.5 15.55 5.95 16 6.5 16H15.5C16.05 16 16.5 15.55 16.5 15C16.5 14.45 16.05 14 15.5 14Z" fill="#3C3C3C"/>
<path d="M15.5 10H6.5C5.95 10 5.5 10.45 5.5 11C5.5 11.55 5.95 12 6.5 12H15.5C16.05 12 16.5 11.55 16.5 11C16.5 10.45 16.05 10 15.5 10Z" fill="#3C3C3C"/>
<path d="M13.5 8H15.5C16.05 8 16.5 7.55 16.5 7C16.5 6.45 16.05 6 15.5 6H13.5C12.95 6 12.5 6.45 12.5 7C12.5 7.55 12.95 8 13.5 8Z" fill="#3C3C3C"/>
<path d="M15.5 18H6.5C5.95 18 5.5 18.45 5.5 19C5.5 19.55 5.95 20 6.5 20H15.5C16.05 20 16.5 19.55 16.5 19C16.5 18.45 16.05 18 15.5 18Z" fill="#3C3C3C"/>
</svg>
