<svg width="27" height="26" viewBox="0 0 27 26" fill="none" xmlns="http://www.w3.org/2000/svg">
<g clip-path="url(#clip0_246_19241)">
<path d="M21.9492 21L22.4492 19H21.4492L21.9492 21Z" fill="white"/>
<path d="M17.9492 21L18.4492 19H17.4492L17.9492 21Z" fill="white"/>
<path d="M19.6992 18H20.1992L19.9492 17L19.6992 18Z" fill="white"/>
<path d="M20 12C16.13 12 13 15.13 13 19C13 22.87 16.13 26 20 26C23.87 26 27 22.87 27 19C27 15.13 23.87 12 20 12ZM24.45 18V19H23.45L22.45 23H21.45L20.45 19H19.45L18.45 23H17.45L16.45 19H15.45V18H16.2L15.45 15H16.45L17.2 18H18.7L19.45 15H20.45L21.2 18H22.7L23.45 15H24.45L23.7 18H24.45Z" fill="white"/>
<path d="M12.0002 19.0004C12.0002 18.9104 12.0102 18.8304 12.0102 18.7404L11.0002 19.3004V11.5904L18.0002 7.70043V11.2604C18.6402 11.0904 19.3102 11.0004 20.0002 11.0004V6.00043C20.0002 5.91043 19.9902 5.82043 19.9602 5.74043C19.9602 5.71043 19.9402 5.69043 19.9302 5.66043C19.9102 5.61043 19.8902 5.55043 19.8602 5.50043C19.8402 5.47043 19.8202 5.44043 19.8002 5.42043C19.7702 5.38043 19.7402 5.33043 19.7002 5.30043C19.6702 5.27043 19.6402 5.26043 19.6102 5.23043C19.5702 5.20043 19.5402 5.17043 19.5002 5.14043H19.4802L10.4902 0.13043C10.1902 -0.0395703 9.82024 -0.0395703 9.52024 0.13043L0.510234 5.13043H0.490234C0.490234 5.13043 0.420234 5.20043 0.380234 5.23043C0.350234 5.25043 0.320234 5.27043 0.290234 5.30043C0.250234 5.34043 0.220234 5.38043 0.190234 5.42043C0.170234 5.45043 0.140234 5.47043 0.130234 5.50043C0.100234 5.55043 0.0802344 5.60043 0.0602344 5.66043C0.0502344 5.69043 0.0302344 5.71043 0.0302344 5.74043C0.0102344 5.82043 -0.00976562 5.91043 -0.00976562 6.00043V16.0004C-0.00976562 16.3604 0.190234 16.7004 0.500234 16.8704L9.50023 21.8704C9.50023 21.8704 9.54023 21.8904 9.56024 21.9004C9.59023 21.9104 9.61024 21.9204 9.64023 21.9304C9.64023 21.9304 9.70023 21.9604 9.73023 21.9704C9.81023 21.9904 9.90023 22.0004 9.98023 22.0004C10.0602 22.0004 10.1502 21.9904 10.2302 21.9704C10.2602 21.9704 10.2902 21.9504 10.3202 21.9404C10.3202 21.9404 10.3702 21.9204 10.4002 21.9104C10.4202 21.9104 10.4402 21.9004 10.4602 21.8804L12.2102 20.9104C12.0602 20.3004 11.9702 19.6704 11.9702 19.0104L12.0002 19.0004ZM10.0002 2.14043L12.2702 3.40043L5.33023 7.26043L3.06023 6.00043L10.0002 2.14043ZM9.00023 19.3004L2.00023 15.4104V7.70043L4.00023 8.81043V12.0004L6.00023 13.0004V9.92043L9.00023 11.5904V19.3004ZM10.0002 9.86043L7.23023 8.32043L14.1702 4.46043L16.9402 6.00043L10.0002 9.86043Z" fill="white"/>
</g>
<defs>
<clipPath id="clip0_246_19241">
<rect width="27" height="26" fill="white"/>
</clipPath>
</defs>
</svg>
