<svg width="22" height="23" viewBox="0 0 22 23" fill="none" xmlns="http://www.w3.org/2000/svg">
<g clip-path="url(#clip0_13_1319)">
<path d="M20 23H14C13.45 23 13 22.55 13 22V17C13 16.45 12.55 16 12 16H10C9.45 16 9 16.45 9 17V22C9 22.55 8.55 23 8 23H2C1.45 23 1 22.55 1 22V8.49C1 7.87 1.29 7.29 1.77 6.91L10.41 0.21C10.77 -0.07 11.28 -0.07 11.64 0.21L20.24 6.91C20.73 7.29 21.01 7.87 21.01 8.49V22C21.01 22.55 20.56 23 20.01 23H20ZM15.5 21H18.5C18.78 21 19 20.78 19 20.5V8.73C19 8.58 18.93 8.43 18.81 8.34L11.32 2.51C11.14 2.37 10.89 2.37 10.71 2.51L3.19 8.34C3.07 8.43 3 8.58 3 8.73V20.5C3 20.78 3.22 21 3.5 21H6.5C6.78 21 7 20.78 7 20.5V16.5C7 15.12 8.12 14 9.5 14H12.5C13.88 14 15 15.12 15 16.5V20.5C15 20.78 15.22 21 15.5 21Z" fill="#3C3C3C"/>
</g>
<defs>
<clipPath id="clip0_13_1319">
<rect width="20" height="23" fill="white" transform="translate(1)"/>
</clipPath>
</defs>
</svg>
