<svg width="36" height="36" viewBox="0 0 36 36" fill="none" xmlns="http://www.w3.org/2000/svg">
<circle cx="18" cy="18" r="18" fill="white"/>
<g clip-path="url(#clip0_295_25383)">
<path d="M28.0908 16.9991H26.2308C26.2008 16.7891 26.1808 16.5891 26.1408 16.3891C26.0408 15.8791 25.8808 15.3691 25.6708 14.8891C25.4708 14.4191 25.2208 13.9591 24.9308 13.5291C24.6408 13.0991 24.3108 12.7091 23.9508 12.3491C23.5908 11.9891 23.1908 11.6591 22.7708 11.3691C22.3408 11.0791 21.8808 10.8291 21.4108 10.6291C20.9308 10.4291 20.4208 10.2691 19.9108 10.1591C18.8608 9.93914 17.7408 9.93914 16.6908 10.1591C16.1808 10.2591 15.6708 10.4191 15.1908 10.6291C14.7208 10.8291 14.2608 11.0791 13.8308 11.3691C13.3708 11.6791 13.2508 12.2991 13.5608 12.7591C13.8708 13.2191 14.4908 13.3391 14.9508 13.0291C15.2708 12.8091 15.6108 12.6291 15.9708 12.4791C16.3308 12.3291 16.7108 12.2091 17.0908 12.1291C17.8808 11.9691 18.7208 11.9691 19.5108 12.1291C19.9008 12.2091 20.2708 12.3291 20.6408 12.4791C20.9908 12.6291 21.3408 12.8191 21.6608 13.0291C21.9808 13.2491 22.2808 13.4891 22.5508 13.7591C22.8208 14.0291 23.0708 14.3291 23.2808 14.6491C23.5008 14.9691 23.6808 15.3091 23.8308 15.6691C23.9808 16.0291 24.1008 16.4091 24.1808 16.7891C24.1908 16.8591 24.2008 16.9291 24.2108 16.9991H22.5108C22.0608 16.9991 21.8408 17.5391 22.1608 17.8491L24.9508 20.6391C25.1508 20.8391 25.4608 20.8391 25.6608 20.6391L28.4508 17.8491C28.7708 17.5391 28.5408 16.9991 28.1008 16.9991H28.0908Z" fill="#434AFA"/>
<path d="M21.6494 22.9807C21.3294 23.2007 20.9894 23.3807 20.6294 23.5307C20.2694 23.6807 19.8894 23.8007 19.5094 23.8807C18.7194 24.0407 17.8794 24.0407 17.0894 23.8807C16.6994 23.8007 16.3294 23.6807 15.9594 23.5307C15.6094 23.3807 15.2594 23.1907 14.9394 22.9807C14.6194 22.7607 14.3194 22.5207 14.0494 22.2507C13.7794 21.9807 13.5294 21.6807 13.3194 21.3607C13.0994 21.0407 12.9194 20.7007 12.7694 20.3407C12.6194 19.9807 12.4994 19.6007 12.4194 19.2207C12.4094 19.1507 12.3994 19.0807 12.3894 19.0107H14.0894C14.5394 19.0107 14.7594 18.4707 14.4394 18.1607L11.6494 15.3707C11.4494 15.1707 11.1394 15.1707 10.9394 15.3707L8.14939 18.1507C7.82939 18.4707 8.05939 19.0007 8.49939 19.0007H10.3594C10.3894 19.2107 10.4094 19.4107 10.4494 19.6107C10.5494 20.1207 10.7094 20.6307 10.9194 21.1107C11.1194 21.5807 11.3694 22.0407 11.6594 22.4707C11.9494 22.9007 12.2794 23.2907 12.6394 23.6507C12.9994 24.0107 13.3994 24.3407 13.8194 24.6307C14.2494 24.9207 14.7094 25.1707 15.1794 25.3707C15.6594 25.5707 16.1694 25.7307 16.6794 25.8407C17.2094 25.9507 17.7494 26.0007 18.2894 26.0007C18.8294 26.0007 19.3694 25.9507 19.8994 25.8407C20.4094 25.7407 20.9194 25.5807 21.3994 25.3707C21.8694 25.1707 22.3294 24.9207 22.7594 24.6307C23.2194 24.3207 23.3394 23.7007 23.0294 23.2407C22.7194 22.7807 22.0994 22.6607 21.6394 22.9707L21.6494 22.9807Z" fill="#434AFA"/>
</g>
<defs>
<clipPath id="clip0_295_25383">
<rect width="20.59" height="16" fill="white" transform="translate(8 10)"/>
</clipPath>
</defs>
</svg>
