<svg width="20" height="22" viewBox="0 0 20 22" fill="none" xmlns="http://www.w3.org/2000/svg">
<path d="M16 5V2C16 0.9 15.1 0 14 0H6C4.9 0 4 0.9 4 2V5C1.79 5 0 6.79 0 9V16C0 17.65 1.35 19 3 19H5V22H15V19H17C18.65 19 20 17.65 20 16V9C20 6.79 18.21 5 16 5ZM6 2.5C6 2.22 6.22 2 6.5 2H13.5C13.78 2 14 2.22 14 2.5V5H6V2.5ZM18 16C18 16.55 17.55 17 17 17H15V14.5H16C16.28 14.5 16.5 14.28 16.5 14C16.5 13.72 16.28 13.5 16 13.5H4C3.72 13.5 3.5 13.72 3.5 14C3.5 14.28 3.72 14.5 4 14.5H5V17H3C2.45 17 2 16.55 2 16V9C2 7.9 2.9 7 4 7H16C17.1 7 18 7.9 18 9V16Z" fill="#fff"/>
<path d="M16 8H14C13.45 8 13 8.45 13 9C13 9.55 13.45 10 14 10H16C16.55 10 17 9.55 17 9C17 8.45 16.55 8 16 8Z" fill="#fff"/>
</svg>
