<svg width="28" height="27" viewBox="0 0 28 27" fill="none" xmlns="http://www.w3.org/2000/svg">
<g clip-path="url(#clip0_4_1615)">
<path d="M12.5 12C13.3284 12 14 11.3284 14 10.5C14 9.67157 13.3284 9 12.5 9C11.6716 9 11 9.67157 11 10.5C11 11.3284 11.6716 12 12.5 12Z" fill="#787878"/>
<path d="M7.5 12C8.32843 12 9 11.3284 9 10.5C9 9.67157 8.32843 9 7.5 9C6.67157 9 6 9.67157 6 10.5C6 11.3284 6.67157 12 7.5 12Z" fill="#787878"/>
<path d="M17.5 12C18.3284 12 19 11.3284 19 10.5C19 9.67157 18.3284 9 17.5 9C16.6716 9 16 9.67157 16 10.5C16 11.3284 16.6716 12 17.5 12Z" fill="#787878"/>
<path d="M13 19.97C13 19.63 13.03 19.3 13.07 18.97C12.52 18.99 11.96 18.9901 11.41 18.9501C11.05 18.92 10.7 18.88 10.35 18.82C9.99999 18.76 9.65999 18.6901 9.32999 18.6C8.99999 18.5201 8.66999 18.42 8.34999 18.31C8.02999 18.2 7.71999 18.08 7.41999 17.9401C7.04999 17.7801 6.61999 17.85 6.32999 18.1201C5.58999 18.8101 4.53999 19.25 3.55999 19.5201C4.45999 18.01 4.60999 16.72 4.60999 16.64C4.63999 16.34 4.53999 16.04 4.31999 15.83C4.10999 15.62 3.90999 15.4 3.71999 15.17C3.53999 14.94 3.35999 14.71 3.20999 14.47C3.04999 14.23 2.90999 13.99 2.77999 13.73C2.64999 13.48 2.53999 13.22 2.43999 12.96C2.33999 12.7 2.25999 12.43 2.18999 12.16C2.11999 11.89 2.06999 11.61 2.03999 11.33C2.00999 11.05 1.98999 10.77 1.98999 10.48C1.98999 10.19 2.00999 9.91005 2.03999 9.63005C2.06999 9.35005 2.12999 9.07005 2.18999 8.81005C2.25999 8.54005 2.33999 8.27005 2.43999 8.01005C2.53999 7.75005 2.64999 7.49005 2.77999 7.24005C2.90999 6.99005 3.04999 6.74005 3.20999 6.50005C3.36999 6.26005 3.53999 6.03005 3.71999 5.80005C3.90999 5.57005 4.09999 5.35005 4.31999 5.14005C4.52999 4.93005 4.75999 4.72005 4.98999 4.53005C5.22999 4.33005 5.46999 4.15005 5.72999 3.97005C5.98999 3.79005 6.25999 3.63005 6.53999 3.47005C6.81999 3.31005 7.10999 3.17005 7.40999 3.03005C7.70999 2.90005 8.01999 2.77005 8.33999 2.66005C8.65999 2.55005 8.97999 2.45005 9.31999 2.36005C9.64999 2.27005 9.98999 2.20005 10.34 2.14005C10.69 2.08005 11.04 2.04005 11.4 2.01005C11.76 1.98005 12.12 1.96005 12.49 1.96005C12.86 1.96005 13.22 1.98005 13.58 2.01005C13.94 2.04005 14.29 2.09005 14.64 2.14005C14.99 2.20005 15.33 2.27005 15.66 2.36005C15.99 2.44005 16.32 2.54005 16.64 2.65005C16.96 2.76005 17.27 2.88005 17.57 3.02005C17.87 3.16005 18.16 3.30005 18.44 3.46005C18.72 3.62005 18.99 3.78005 19.25 3.96005C19.51 4.14005 19.76 4.32005 19.99 4.52005C20.23 4.71005 20.45 4.92005 20.66 5.13005C20.87 5.34005 21.07 5.56005 21.26 5.79005C21.44 6.02005 21.62 6.25005 21.77 6.49005C21.93 6.73005 22.07 6.97005 22.2 7.23005C22.33 7.48005 22.44 7.74005 22.54 8.00005C22.64 8.26005 22.72 8.53005 22.79 8.80005C22.86 9.07005 22.91 9.35005 22.94 9.63005C22.97 9.91005 22.99 10.19 22.99 10.48C22.99 10.77 22.97 11.05 22.94 11.33C22.91 11.61 22.85 11.89 22.79 12.15C23.45 12.31 24.08 12.54 24.67 12.85C24.69 12.78 24.72 12.71 24.74 12.63C24.83 12.28 24.89 11.93 24.93 11.57C24.97 11.21 25 10.84 25 10.48C25 10.12 24.98 9.75005 24.93 9.39005C24.89 9.03005 24.82 8.68005 24.73 8.33005C24.64 7.98005 24.54 7.64005 24.41 7.31005C24.29 6.98005 24.14 6.65005 23.98 6.33005C23.82 6.01005 23.64 5.70005 23.44 5.41005C23.24 5.11005 23.03 4.82005 22.8 4.54005C22.57 4.26005 22.33 3.99005 22.07 3.73005C21.81 3.47005 21.54 3.23005 21.26 2.99005C20.98 2.76005 20.68 2.53005 20.37 2.32005C20.06 2.11005 19.74 1.91005 19.41 1.73005C19.08 1.55005 18.74 1.37005 18.38 1.21005C18.03 1.05005 17.67 0.910049 17.3 0.780049C16.93 0.650049 16.55 0.540049 16.16 0.440049C15.77 0.340049 15.38 0.260049 14.97 0.190049C14.57 0.120049 14.16 0.0700488 13.74 0.0400488C12.91 -0.0299512 12.05 -0.0299512 11.22 0.0400488C10.81 0.0800488 10.4 0.130049 9.98999 0.190049C9.58999 0.260049 9.18999 0.340049 8.80999 0.440049C8.41999 0.540049 8.03999 0.650049 7.66999 0.780049C7.29999 0.910049 6.93999 1.05005 6.58999 1.21005C6.23999 1.37005 5.88999 1.54005 5.56999 1.72005C5.23999 1.91005 4.91999 2.10005 4.60999 2.31005C4.29999 2.52005 3.99999 2.74005 3.71999 2.98005C3.43999 3.21005 3.15999 3.46005 2.90999 3.72005C2.64999 3.98005 2.40999 4.25005 2.17999 4.53005C1.94999 4.81005 1.73999 5.10005 1.53999 5.40005C1.33999 5.70005 1.15999 6.01005 0.99999 6.33005C0.83999 6.65005 0.68999 6.97005 0.56999 7.30005C0.43999 7.63005 0.33999 7.98005 0.24999 8.32005C0.15999 8.67005 0.0999902 9.02005 0.0599902 9.38005C0.0199902 9.74005 -0.0100098 10.11 -0.0100098 10.47C-0.0100098 10.83 0.00999023 11.2 0.0599902 11.56C0.0999902 11.92 0.16999 12.27 0.25999 12.62C0.34999 12.97 0.44999 13.31 0.57999 13.64C0.69999 13.97 0.84999 14.3 1.00999 14.62C1.16999 14.94 1.34999 15.24 1.54999 15.54C1.74999 15.84 1.95999 16.13 2.18999 16.41C2.29999 16.55 2.41999 16.6901 2.53999 16.82C2.35999 17.5201 1.82999 18.97 0.37999 20.17C0.0499902 20.4501 -0.0700098 20.9 0.0899902 21.3C0.23999 21.69 0.60999 21.9401 1.01999 21.9401H1.06999C1.22999 21.9401 4.81999 21.74 7.18999 19.98C7.35999 20.05 7.51999 20.1101 7.68999 20.17C8.05999 20.3 8.43999 20.41 8.82999 20.51C9.21999 20.6101 9.60999 20.6901 10.02 20.76C10.42 20.83 10.83 20.88 11.24 20.91C11.84 20.96 12.46 20.9601 13.07 20.9401C13.03 20.6101 13 20.2801 13 19.9401V19.97Z" fill="#787878"/>
<path d="M18.11 17.1699C17.53 17.7499 17.53 18.7099 18.11 19.2899C18.69 19.8699 19.65 19.8699 20.23 19.2899C20.81 18.7099 20.81 17.7499 20.23 17.1699C19.65 16.5899 18.69 16.5899 18.11 17.1699Z" fill="#787878"/>
<path d="M21 12.97C17.13 12.97 14 16.1 14 19.97C14 23.84 17.13 26.97 21 26.97C24.87 26.97 28 23.84 28 19.97C28 16.1 24.87 12.97 21 12.97ZM25.18 22.82L24.47 23.53C24.27 23.73 23.96 23.73 23.76 23.53L20.54 20.31C19.57 20.95 18.25 20.85 17.39 19.99C16.42 19.02 16.42 17.43 17.39 16.45C18.36 15.48 19.95 15.48 20.93 16.45C21.78 17.3 21.89 18.63 21.25 19.6L22.7 21.05L23.05 20.7C23.25 20.5 23.56 20.5 23.76 20.7C23.96 20.9 23.96 21.21 23.76 21.41L23.41 21.76L24.12 22.47L24.47 22.12C24.67 21.92 24.98 21.92 25.18 22.12C25.38 22.32 25.38 22.63 25.18 22.83V22.82Z" fill="#787878"/>
</g>
<defs>
<clipPath id="clip0_4_1615">
<rect width="28" height="26.97" fill="white"/>
</clipPath>
</defs>
</svg>
