<svg width="47" height="47" viewBox="0 0 47 47" fill="none" xmlns="http://www.w3.org/2000/svg">
<g clip-path="url(#clip0_70_11322)">
<path d="M36 25.46C30.2 25.46 25.5 30.16 25.5 35.96C25.5 41.76 30.2 46.46 36 46.46C41.8 46.46 46.5 41.76 46.5 35.96C46.5 30.16 41.8 25.46 36 25.46ZM36 42.88C35.01 42.88 34.28 42.16 34.28 41.17C34.28 40.18 35.01 39.45 36 39.45C36.99 39.45 37.72 40.18 37.72 41.17C37.72 42.16 36.99 42.88 36 42.88ZM38.81 35.84C37.87 36.57 37.44 37.09 37.3 37.73C37.23 38.04 36.96 38.26 36.65 38.26H35.29C34.88 38.26 34.57 37.9 34.61 37.49C34.74 36.34 35.21 35.6 36.2 34.86C37.16 34.13 37.68 33.64 37.68 32.86C37.68 32.08 37.09 31.54 36.07 31.54C34.98 31.54 34.39 32.3 34.39 33.13V33.44C34.39 33.81 34.09 34.12 33.71 34.12H32.24C31.87 34.12 31.56 33.82 31.56 33.44V33.13C31.56 30.79 33.41 29.03 36.05 29.03C38.86 29.03 40.46 30.64 40.46 32.85C40.46 34.05 39.87 35.01 38.82 35.83L38.81 35.84Z" fill="#A0A0A0"/>
<path d="M24.75 15.75C27.2353 15.75 29.25 13.7353 29.25 11.25C29.25 8.76472 27.2353 6.75 24.75 6.75C22.2647 6.75 20.25 8.76472 20.25 11.25C20.25 13.7353 22.2647 15.75 24.75 15.75Z" fill="#A0A0A0"/>
<path d="M24.04 36H5.62C5 36 4.5 35.5 4.5 34.88V30.07L12.64 20.31C13.09 19.77 13.92 19.77 14.37 20.31L21.45 28.81C22.26 29.78 23.44 30.37 24.7 30.42C24.95 30.43 25.19 30.41 25.43 30.38C27.44 26.59 31.42 24.01 36 24.01C37.59 24.01 39.11 24.33 40.5 24.89V4.5C40.5 2.01 38.49 0 36 0H4.5C2.01 0 0 2.01 0 4.5V36C0 38.49 2.01 40.5 4.5 40.5H24.94C24.37 39.11 24.05 37.59 24.04 36ZM4.5 5.62C4.5 5 5 4.5 5.62 4.5H34.87C35.49 4.5 35.99 5 35.99 5.62V23.82L34.67 22.5C32.91 20.74 30.06 20.74 28.31 22.5L25.76 25.05C25.29 25.52 24.52 25.48 24.1 24.97L16.94 16.38C15.14 14.22 11.83 14.22 10.03 16.38L4.49 23.03V5.62H4.5Z" fill="#A0A0A0"/>
</g>
<defs>
<clipPath id="clip0_70_11322">
<rect width="46.5" height="46.46" fill="white"/>
</clipPath>
</defs>
</svg>
