<svg width="18" height="18" viewBox="0 0 18 18" fill="none" xmlns="http://www.w3.org/2000/svg">
<circle cx="9" cy="9" r="9" fill="#A0A0A0"/>
<g clip-path="url(#clip0_91_10923)">
<path d="M11.493 5.25923L5.25629 11.4959C4.91263 11.8396 4.91263 12.3968 5.25629 12.7404C5.59995 13.0841 6.15713 13.0841 6.5008 12.7404L12.7375 6.50374C13.0811 6.16008 13.0811 5.60289 12.7375 5.25923C12.3938 4.91557 11.8366 4.91557 11.493 5.25923Z" fill="#F2F4FA"/>
<path d="M6.5008 5.25958C6.15713 4.91592 5.59995 4.91592 5.25629 5.25958C4.91263 5.60324 4.91263 6.16043 5.25629 6.50409L11.493 12.7408C11.8366 13.0844 12.3938 13.0844 12.7375 12.7408C13.0811 12.3971 13.0811 11.8399 12.7375 11.4963L6.5008 5.25958Z" fill="#F2F4FA"/>
</g>
<defs>
<clipPath id="clip0_91_10923">
<rect width="8" height="8" fill="white" transform="translate(5 5)"/>
</clipPath>
</defs>
</svg>
