<svg width="27" height="27" viewBox="0 0 27 27" fill="none" xmlns="http://www.w3.org/2000/svg">
<g clip-path="url(#clip0_13_1342)">
<path d="M14.8201 14.7898L16.1401 17.5398L15.6001 17.6898L15.8601 18.6598L16.5801 18.4698L18.3401 22.1398L19.0601 21.9498L18.7501 17.8898L19.4701 17.6998L21.2301 21.3698L21.9501 21.1798L21.6401 17.1198L22.3601 16.9298L22.1001 15.9598L21.5601 16.1098L21.3301 13.0698L20.6101 13.2598L20.8401 16.2998L19.7501 16.5898L18.4301 13.8398L17.7101 14.0298L17.9401 17.0698L16.8501 17.3598L15.5301 14.6098L14.8101 14.7998L14.8201 14.7898ZM20.2001 17.4898L20.9201 17.2998L21.0801 19.3298L20.2001 17.4998V17.4898ZM18.6701 16.8598L18.5901 15.8498L19.0301 16.7698L18.6701 16.8698V16.8598ZM17.3001 18.2598L18.0201 18.0698L18.1801 20.0998L17.3001 18.2698V18.2598Z" fill="white"/>
<path d="M9.29009 19.9001C10.5701 24.6901 14.6501 27.7801 18.3801 26.7801L20.8601 26.1201C20.8601 26.1201 20.9201 26.0901 20.9601 26.0701C21.0701 26.0501 21.1801 26.0301 21.2801 26.0101C25.0101 25.0101 27.0001 20.3001 25.7101 15.5001C24.4201 10.7001 20.3501 7.62006 16.6201 8.62006C16.5101 8.65006 16.4101 8.69006 16.3101 8.73006C16.2701 8.73006 16.2401 8.73006 16.2001 8.73006L13.7201 9.39006C9.99009 10.3901 8.00009 15.1001 9.29009 19.9001ZM20.7601 24.0701C18.1001 24.7801 15.1201 22.3301 14.1201 18.6001C13.1201 14.8701 14.4701 11.2601 17.1401 10.5401C19.8101 9.82006 22.7801 12.2801 23.7801 16.0101C24.7801 19.7401 23.4301 23.3501 20.7601 24.0701ZM11.2201 19.3801C10.4501 16.5201 11.0801 13.7301 12.6101 12.2601C11.7401 14.1901 11.5201 16.6401 12.1901 19.1201C12.8601 21.6001 14.2701 23.6101 15.9901 24.8501C13.9301 24.3501 11.9901 22.2401 11.2301 19.3801H11.2201Z" fill="white"/>
<path d="M8.32 20.1598C8.21 19.7598 8.13 19.3698 8.07 18.9698C4.34 18.7798 2 17.4398 2 16.4998V15.3898C3.41 16.2598 5.49 16.8298 7.91 16.9698C7.91 16.2898 7.97 15.6198 8.09 14.9798C4.35 14.7898 2 13.4498 2 12.5098V11.3998C3.56 12.3498 5.92 12.9498 8.66 12.9998C8.96 12.2698 9.33 11.5898 9.79 10.9898C9.53 10.9998 9.27 11.0098 9 11.0098C4.73 11.0098 2 9.52977 2 8.50977V7.39977C3.62 8.38977 6.11 9.00977 9 9.00977C10.59 9.00977 12.06 8.81977 13.33 8.47976C13.37 8.46976 13.42 8.44977 13.46 8.43976L13.94 8.30977C14.72 8.05977 15.42 7.75977 16 7.39977V7.75977L16.36 7.65977C16.9 7.50977 17.45 7.43977 18 7.43977V4.53977V4.50977C18 1.93977 14.13 0.00976562 9 0.00976562C3.87 0.00976562 0 1.92977 0 4.49977V4.51977V8.51977V12.5198V16.4998C0 18.9898 3.66 20.8898 8.58 20.9898C8.49 20.7198 8.4 20.4398 8.32 20.1598ZM9 1.99977C13.27 1.99977 16 3.47977 16 4.49977C16 5.51977 13.27 6.99977 9 6.99977C4.73 6.99977 2 5.51977 2 4.49977C2 3.47977 4.73 1.99977 9 1.99977Z" fill="white"/>
</g>
<defs>
<clipPath id="clip0_13_1342">
<rect width="26.1" height="26.97" fill="white"/>
</clipPath>
</defs>
</svg>
