<?xml version="1.0" encoding="utf-8"?>
<!-- Generator: Adobe Illustrator 26.1.0, SVG Export Plug-In . SVG Version: 6.00 Build 0)  -->
<svg version="1.1" id="Layer_1" xmlns="http://www.w3.org/2000/svg" xmlns:xlink="http://www.w3.org/1999/xlink" x="0px" y="0px"
	 viewBox="0 0 28 28" style="enable-background:new 0 0 28 28;" xml:space="preserve">
<style type="text/css">
	.st0{fill:#FFFFFF;}
	.st1{fill:#434AFA;}
</style>
<g>
	<path class="st0" d="M14,19c-0.4,0-0.7-0.2-0.9-0.6L5.6,3.3C4.9,1.9,3.6,1,2,1H0V0h28v1h-2c-1.6,0-2.9,0.9-3.6,2.3l-7.5,15.2
		C14.7,18.8,14.4,19,14,19z"/>
	<path class="st1" d="M0,2h2c1.2,0,2.2,0.7,2.7,1.7l7.5,15.2c0.4,0.8,1.1,1.1,1.8,1.1c0.7,0,1.4-0.4,1.8-1.1l7.5-15.2
		C23.8,2.7,24.8,2,26,2h2V0h-2c-1.9,0-3.7,1.1-4.5,2.8L14,18L6.5,2.8C5.7,1.1,3.9,0,2,0H0V2z"/>
</g>
</svg>
