<svg width="20" height="20" viewBox="0 0 20 20" fill="none" xmlns="http://www.w3.org/2000/svg">
<path d="M16.5302 9.39L14.5402 7.4C14.4002 7.26 14.1702 7.26 14.0302 7.4L12.0402 9.39C11.8102 9.62 11.9702 10 12.2902 10H13.5702C13.5702 10.48 13.4802 10.95 13.2902 11.39C13.1102 11.81 12.8502 12.2 12.5202 12.53C12.1902 12.86 11.8102 13.12 11.3802 13.3C10.5002 13.67 9.48023 13.67 8.60023 13.3C8.18023 13.12 7.79023 12.86 7.46023 12.53C7.13023 12.2 6.87023 11.82 6.69023 11.39C6.50023 10.95 6.41023 10.48 6.41023 10C6.41023 9.52 6.50023 9.05 6.69023 8.61C6.87023 8.19 7.13023 7.8 7.46023 7.47C7.79023 7.14 8.17023 6.88 8.60023 6.7C9.04023 6.51 9.51023 6.42 9.99023 6.42C10.3802 6.42 10.7002 6.1 10.7002 5.71C10.7002 5.32 10.3802 5 9.99023 5C9.32023 5 8.66023 5.13 8.04023 5.39C7.44023 5.64 6.91023 6 6.45023 6.46C5.99023 6.92 5.63023 7.45 5.38023 8.05C5.12023 8.67 4.99023 9.32 4.99023 10C4.99023 10.68 5.12023 11.33 5.38023 11.95C5.63023 12.55 5.99023 13.08 6.45023 13.54C6.91023 14 7.44023 14.36 8.04023 14.61C8.66023 14.87 9.31023 15 9.99023 15C10.6702 15 11.3202 14.87 11.9402 14.61C12.5402 14.36 13.0702 14 13.5302 13.54C13.9902 13.08 14.3502 12.55 14.6002 11.95C14.8602 11.33 14.9902 10.68 14.9902 10H16.2702C16.5902 10 16.7502 9.62 16.5202 9.39H16.5302Z" fill="#787878"/>
</svg>
