<svg width="20" height="20" viewBox="0 0 20 20" fill="none" xmlns="http://www.w3.org/2000/svg">
<path d="M10 20C4.49 20 0 15.51 0 10C0 4.49 4.49 0 10 0C15.51 0 20 4.49 20 10C20 15.51 15.51 20 10 20Z" fill="#434AFA"/>
<path d="M7.99994 14.0001C7.99994 14.0001 7.92994 14.0001 7.89994 14.0001C7.59994 13.9701 7.32994 13.8101 7.16994 13.5601L5.16994 10.5601C4.85994 10.1001 4.98994 9.48006 5.44994 9.17006C5.90994 8.86006 6.52994 8.99006 6.83994 9.45006L8.15994 11.4301L13.2999 6.29006C13.6899 5.90006 14.3199 5.90006 14.7099 6.29006C15.0999 6.68006 15.0999 7.31006 14.7099 7.70006L8.70994 13.7001C8.51994 13.8901 8.26994 13.9901 7.99994 13.9901V14.0001Z" fill="white"/>
</svg>
