<svg width="18" height="18" viewBox="0 0 18 18" fill="none" xmlns="http://www.w3.org/2000/svg">
<path d="M0 2V16C0 17.1 0.9 18 2 18H16C17.1 18 18 17.1 18 16V2C18 0.9 17.1 0 16 0H2C0.9 0 0 0.9 0 2ZM16 2.5V10.59L15.41 10C14.63 9.22 13.36 9.22 12.58 10L11.45 11.13C11.24 11.34 10.9 11.32 10.71 11.1L7.53 7.28C6.73 6.32 5.26 6.32 4.46 7.28L2 10.24V2.5C2 2.22 2.22 2 2.5 2H15.5C15.78 2 16 2.22 16 2.5ZM2 15.5V13.36L5.62 9.02C5.82 8.78 6.19 8.78 6.39 9.02L9.54 12.8C9.9 13.23 10.43 13.49 10.99 13.52C11.56 13.55 12.1 13.33 12.49 12.94L13.65 11.77C13.85 11.57 14.16 11.57 14.36 11.77L16.01 13.42V15.51C16.01 15.79 15.79 16.01 15.51 16.01H2.5C2.22 16.01 2 15.79 2 15.51V15.5Z" fill="#fff"/>
<path d="M12 8C13.1046 8 14 7.10457 14 6C14 4.89543 13.1046 4 12 4C10.8954 4 10 4.89543 10 6C10 7.10457 10.8954 8 12 8Z" fill="#fff"/>
</svg>
