<svg width="17" height="28" viewBox="0 0 17 28" fill="none" xmlns="http://www.w3.org/2000/svg">
<g clip-path="url(#clip0_295_100216)">
<path opacity="0.5" d="M1.00025 27.9996C0.84025 27.9996 0.670251 27.9436 0.52025 27.8176C0.0402505 27.4396 -0.13975 26.5856 0.13025 25.9136L4.72025 14.3356C4.80025 14.1256 4.80025 13.8736 4.72025 13.6496L0.13025 2.08557C-0.13975 1.39957 0.0302505 0.545569 0.510251 0.181569C1.00025 -0.196431 1.61025 0.0415695 1.87025 0.713569L6.87025 13.3136C7.04025 13.7336 7.04025 14.2516 6.87025 14.6716L1.87025 27.2856C1.69025 27.7476 1.35025 27.9996 0.990251 27.9996H1.00025Z" fill="#A2A7B5"/>
<path opacity="0.75" d="M5.99979 28.0001C5.83979 28.0001 5.66979 27.9441 5.51979 27.8181C5.03979 27.4401 4.85979 26.5861 5.12979 25.9141L9.72979 14.3361C9.80979 14.1261 9.80979 13.8741 9.72979 13.6501L5.12979 2.0861C4.85979 1.4141 5.03979 0.560103 5.51979 0.182103C5.99979 -0.195897 6.60979 0.0561029 6.87979 0.728103L11.8798 13.3281C12.0498 13.7481 12.0498 14.2661 11.8798 14.6861L6.87979 27.2861C6.69979 27.7481 6.35979 28.0001 5.99979 28.0001Z" fill="#A2A7B5"/>
<path d="M10.9998 28.0001C10.8398 28.0001 10.6698 27.9441 10.5198 27.8181C10.0398 27.4401 9.85979 26.5861 10.1298 25.9141L14.7298 14.3361C14.8098 14.1261 14.8098 13.8741 14.7298 13.6501L10.1298 2.0861C9.85979 1.4141 10.0398 0.560103 10.5198 0.182103C10.9998 -0.195897 11.6098 0.0561029 11.8798 0.728103L16.8798 13.3281C17.0498 13.7481 17.0498 14.2661 16.8798 14.6861L11.8798 27.2861C11.6998 27.7481 11.3598 28.0001 10.9998 28.0001Z" fill="#A2A7B5"/>
</g>
<defs>
<clipPath id="clip0_295_100216">
<rect width="17" height="28" fill="white"/>
</clipPath>
</defs>
</svg>
