<svg width="20" height="20" viewBox="0 0 20 20" fill="none" xmlns="http://www.w3.org/2000/svg">
<path d="M10 0C15.51 0 20 4.49 20 10C20 15.51 15.51 20 10 20C4.49 20 0 15.51 0 10C0 4.49 4.49 0 10 0ZM10 18C14.41 18 18 14.41 18 10C18 5.59 14.41 2 10 2C5.59 2 2 5.59 2 10C2 14.41 5.59 18 10 18Z" fill="#fff"/>
<path d="M10.3293 5.3502L13.1193 8.1402C13.4393 8.4602 13.2093 8.9902 12.7693 8.9902H10.9993V13.4402C10.9993 13.9902 10.5493 14.4402 9.99927 14.4402C9.44927 14.4402 8.99927 13.9902 8.99927 13.4402V8.9902H7.17927C6.72927 8.9902 6.50927 8.4502 6.82927 8.1402L9.61927 5.3502C9.81927 5.1502 10.1293 5.1502 10.3293 5.3502Z" fill="#fff"/>
</svg>
