<svg width="18" height="18" viewBox="0 0 18 18" fill="none" xmlns="http://www.w3.org/2000/svg">
<g clip-path="url(#clip0_70_6533)">
<path d="M6 7.5H4V9.5H6V7.5Z" fill="#fff"/>
<path d="M10 7.5H8V9.5H10V7.5Z" fill="#fff"/>
<path d="M14 7.5H12V9.5H14V7.5Z" fill="#fff"/>
<path d="M14 11.5H12V13.5H14V11.5Z" fill="#fff"/>
<path d="M6 11.5H4V13.5H6V11.5Z" fill="#fff"/>
<path d="M10 11.5H8V13.5H10V11.5Z" fill="#fff"/>
<path d="M16 1.5H14V1C14 0.45 13.55 0 13 0C12.45 0 12 0.45 12 1V1.5H6V1C6 0.45 5.55 0 5 0C4.45 0 4 0.45 4 1V1.5H2C0.9 1.5 0 2.4 0 3.5V14.5C0 16.16 1.34 17.5 3 17.5H15C16.66 17.5 18 16.16 18 14.5V3.5C18 2.4 17.1 1.5 16 1.5ZM16 14.5C16 15.05 15.55 15.5 15 15.5H3C2.45 15.5 2 15.05 2 14.5V6.5C2 5.95 2.45 5.5 3 5.5H15C15.55 5.5 16 5.95 16 6.5V14.5Z" fill="#fff"/>
</g>
<defs>
<clipPath id="clip0_70_6533">
<rect width="18" height="17.5" fill="white"/>
</clipPath>
</defs>
</svg>
