<svg width="24" height="23" viewBox="0 0 24 23" fill="none" xmlns="http://www.w3.org/2000/svg">
<path d="M17 5H1C0.447715 5 0 5.44772 0 6C0 6.55228 0.447715 7 1 7H17C17.5523 7 18 6.55228 18 6C18 5.44772 17.5523 5 17 5Z" fill="white"/>
<path d="M17 0H1C0.447715 0 0 0.447715 0 1C0 1.55228 0.447715 2 1 2H17C17.5523 2 18 1.55228 18 1C18 0.447715 17.5523 0 17 0Z" fill="white"/>
<path d="M11.72 10H1C0.45 10 0 10.45 0 11C0 11.55 0.45 12 1 12H10.08C10.52 11.25 11.07 10.57 11.72 10Z" fill="white"/>
<path d="M9 16C9 15.66 9.03 15.33 9.07 15H1C0.45 15 0 15.45 0 16C0 16.55 0.45 17 1 17H9.07C9.03 16.67 9 16.34 9 16Z" fill="white"/>
<path d="M17 9C13.13 9 10 12.13 10 16C10 19.87 13.13 23 17 23C20.87 23 24 19.87 24 16C24 12.13 20.87 9 17 9ZM20.77 14.17L15.97 18.97C15.82 19.12 15.62 19.2 15.4 19.2C15.37 19.2 15.35 19.2 15.32 19.2C15.08 19.18 14.87 19.05 14.73 18.85L13.13 16.45C12.89 16.08 12.98 15.59 13.35 15.34C13.72 15.09 14.21 15.19 14.46 15.56L15.52 17.15L19.63 13.04C19.94 12.73 20.45 12.73 20.76 13.04C21.07 13.35 21.07 13.86 20.76 14.17H20.77Z" fill="white"/>
</svg>
