<svg width="36" height="35" viewBox="0 0 36 35" fill="none" xmlns="http://www.w3.org/2000/svg">
<path d="M32 3H28V2C28 0.9 27.1 0 26 0C24.9 0 24 0.9 24 2V3H12V2C12 0.9 11.1 0 10 0C8.9 0 8 0.9 8 2V3H4C1.8 3 0 4.8 0 7V29C0 32.32 2.68 35 6 35H30C33.32 35 36 32.32 36 29V7C36 4.8 34.2 3 32 3ZM32 29C32 30.1 31.1 31 30 31H6C4.9 31 4 30.1 4 29V13C4 11.9 4.9 11 6 11H30C31.1 11 32 11.9 32 13V29Z" fill="#3C3C3C"/>
<path d="M15.9999 26.9991C15.9999 26.9991 15.8599 26.9991 15.7999 26.9991C15.1999 26.9391 14.6599 26.6191 14.3399 26.1191L10.3399 20.1191C9.71988 19.1991 9.97988 17.9591 10.8999 17.3391C11.8199 16.7191 13.0599 16.9791 13.6799 17.8991L16.3199 21.8591L22.5999 15.5791C23.3799 14.7991 24.6399 14.7991 25.4199 15.5791C26.1999 16.3591 26.1999 17.6191 25.4199 18.3991L17.4199 26.3991C17.0399 26.7791 16.5399 26.9791 15.9999 26.9791V26.9991Z" fill="#3C3C3C"/>
</svg>
