<svg width="20" height="21" viewBox="0 0 20 21" fill="none" xmlns="http://www.w3.org/2000/svg">
<g clip-path="url(#clip0_295_26651)">
<path d="M15.6574 16.5863C13.7078 18.5359 10.5359 18.5359 8.5863 16.5863L2.52538 10.5254C1.13137 9.13137 1.13137 6.86863 2.52538 5.47462C3.91939 4.08061 6.18213 4.08061 7.57614 5.47462L13.132 11.0305C13.9654 11.8638 13.9654 13.2275 13.132 14.0609C12.2986 14.8943 10.9349 14.8943 10.1015 14.0609L5.55584 9.51523C5.27805 9.23744 5.27805 8.78287 5.55584 8.50508C5.83363 8.22728 6.2882 8.22728 6.56599 8.50508L11.1117 13.0508C11.3895 13.3286 11.844 13.3286 12.1218 13.0508C12.3996 12.773 12.3996 12.3184 12.1218 12.0406L6.56599 6.48477C5.73262 5.6514 4.36891 5.6514 3.53553 6.48477C2.70216 7.31815 2.70216 8.68185 3.53553 9.51523L9.59645 15.5761C10.9905 16.9702 13.2532 16.9702 14.6472 15.5761C16.0412 14.1821 16.0412 11.9194 14.6472 10.5254L9.59645 5.47462C9.31866 5.19683 9.31866 4.74226 9.59645 4.46447C9.87424 4.18667 10.3288 4.18667 10.6066 4.46447L15.6574 9.51523C17.607 11.4648 17.607 14.6367 15.6574 16.5863Z" fill="#fff"/>
</g>
<defs>
<clipPath id="clip0_295_26651">
<rect width="10" height="17.1429" fill="white" transform="translate(0 8) rotate(-45)"/>
</clipPath>
</defs>
</svg>
