<svg width="22" height="25" viewBox="0 0 22 25" fill="none" xmlns="http://www.w3.org/2000/svg">
<path d="M5 7H1V5H5V1H7V5C7 6.1 6.1 7 5 7Z" fill="white"/>
<path d="M16.9502 20L17.4502 18H16.4502L16.9502 20Z" fill="white"/>
<path d="M12.9502 20L13.4502 18H12.4502L12.9502 20Z" fill="white"/>
<path d="M14.7002 17H15.2002L14.9502 16L14.7002 17Z" fill="white"/>
<path d="M15 11C11.13 11 8 14.13 8 18C8 21.87 11.13 25 15 25C18.87 25 22 21.87 22 18C22 14.13 18.87 11 15 11ZM19.45 17V18H18.45L17.45 22H16.45L15.45 18H14.45L13.45 22H12.45L11.45 18H10.45V17H11.2L10.45 14H11.45L12.2 17H13.7L14.45 14H15.45L16.2 17H17.7L18.45 14H19.45L18.7 17H19.45Z" fill="white"/>
<path d="M7.26 20H2V5.41L5.41 2H14V10.07C14.33 10.03 14.66 10 15 10C15.34 10 15.67 10.03 16 10.07V2C16 0.9 15.1 0 14 0H5.41C4.88 0 4.37 0.21 4 0.59L0.59 4C0.21 4.38 0 4.88 0 5.41V20C0 21.1 0.9 22 2 22H8.08C7.72 21.38 7.45 20.71 7.26 20Z" fill="white"/>
</svg>
