<svg width="18" height="18" viewBox="0 0 18 18" fill="none" xmlns="http://www.w3.org/2000/svg">
<g clip-path="url(#clip0_295_26661)">
<path d="M13.0007 15.0003H5.00065C4.63398 15.0003 4.33398 14.7003 4.33398 14.3337C4.33398 13.967 4.63398 13.667 5.00065 13.667H13.0007C13.3673 13.667 13.6673 13.967 13.6673 14.3337C13.6673 14.7003 13.3673 15.0003 13.0007 15.0003Z" fill="#A0A0A0"/>
<path d="M8.99935 13.6667C8.81268 13.6667 8.63935 13.5867 8.51268 13.4533L4.17935 8.78667C3.99935 8.59333 3.94602 8.30667 4.05268 8.06667C4.15935 7.82667 4.39935 7.66667 4.66602 7.66667H6.66602V3.66667C6.66602 3.3 6.96602 3 7.33268 3C7.69935 3 7.99935 3.3 7.99935 3.66667V8.33333C7.99935 8.7 7.69935 9 7.33268 9H6.19268L8.99935 12.02L11.806 9H10.666C10.2994 9 9.99935 8.7 9.99935 8.33333V3.66667C9.99935 3.3 10.2994 3 10.666 3C11.0327 3 11.3327 3.3 11.3327 3.66667V7.66667H13.3327C13.5994 7.66667 13.8394 7.82667 13.946 8.06667C14.0527 8.30667 14.006 8.59333 13.826 8.78667L9.49268 13.4533C9.36602 13.5867 9.18602 13.6667 9.00602 13.6667H8.99935Z" fill="#A0A0A0"/>
<path d="M8.99935 13.6667C8.81268 13.6667 8.63935 13.5867 8.51268 13.4533L4.17935 8.78667C3.99935 8.59333 3.94602 8.30667 4.05268 8.06667C4.15935 7.82667 4.39935 7.66667 4.66602 7.66667H6.66602V3.66667C6.66602 3.3 6.96602 3 7.33268 3C7.69935 3 7.99935 3.3 7.99935 3.66667V8.33333C7.99935 8.7 7.69935 9 7.33268 9H6.19268L8.99935 12.02L11.806 9H10.666C10.2994 9 9.99935 8.7 9.99935 8.33333V3.66667C9.99935 3.3 10.2994 3 10.666 3C11.0327 3 11.3327 3.3 11.3327 3.66667V7.66667H13.3327C13.5994 7.66667 13.8394 7.82667 13.946 8.06667C14.0527 8.30667 14.006 8.59333 13.826 8.78667L9.49268 13.4533C9.36602 13.5867 9.18602 13.6667 9.00602 13.6667H8.99935Z" fill="#A0A0A0"/>
</g>
<defs>
<clipPath id="clip0_295_26661">
<rect width="10" height="12" fill="white" transform="translate(4 3)"/>
</clipPath>
</defs>
</svg>
