<svg width="20" height="20" viewBox="0 0 20 20" fill="none" xmlns="http://www.w3.org/2000/svg">
<path d="M10 20C4.49 20 0 15.51 0 10C0 4.49 4.49 0 10 0C15.51 0 20 4.49 20 10C20 15.51 15.51 20 10 20ZM10 2C5.59 2 2 5.59 2 10C2 14.41 5.59 18 10 18C14.41 18 18 14.41 18 10C18 5.59 14.41 2 10 2Z" fill="#787878"/>
<path d="M9.66986 14.65L6.87986 11.86C6.55986 11.54 6.78986 11.01 7.22986 11.01H8.99986V6.55005C8.99986 6.00005 9.44986 5.55005 9.99986 5.55005C10.5499 5.55005 10.9999 6.00005 10.9999 6.55005V11H12.8199C13.2699 11 13.4899 11.54 13.1699 11.85L10.3799 14.64C10.1799 14.84 9.86986 14.84 9.66986 14.64V14.65Z" fill="#787878"/>
</svg>
