<svg width="27" height="25" viewBox="0 0 27 25" fill="none" xmlns="http://www.w3.org/2000/svg">
<path d="M17.29 6H18C18 5.45 17.55 5 17 5H1C0.45 5 0 5.45 0 6C0 6.55 0.45 7 1 7H15.81C16.05 6.41 16.62 6 17.29 6Z" fill="white"/>
<path d="M17 0H1C0.447715 0 0 0.447715 0 1C0 1.55228 0.447715 2 1 2H17C17.5523 2 18 1.55228 18 1C18 0.447715 17.5523 0 17 0Z" fill="white"/>
<path d="M26.47 14.69L25.11 14.54C24.81 14.51 24.52 14.24 24.43 13.96C24.31 13.59 24.17 13.24 23.99 12.91C23.85 12.64 23.87 12.25 24.06 12.01L24.91 10.94C25.1 10.7 25.08 10.36 24.87 10.14L23.86 9.13C23.64 8.91 23.3 8.89 23.06 9.09L21.99 9.94C21.76 10.13 21.36 10.15 21.09 10.01C20.75 9.84 20.4 9.69 20.04 9.57C19.76 9.48 19.49 9.18 19.46 8.89L19.31 7.53C19.28 7.23 19.02 7 18.71 7H17.28C16.97 7 16.72 7.23 16.68 7.53L16.53 8.89C16.5 9.19 16.23 9.48 15.95 9.57C15.58 9.69 15.23 9.83 14.9 10.01C14.63 10.15 14.24 10.13 14.01 9.94L13.05 9.18C12.7 8.9 12.35 8.92 12.14 9.13L11.13 10.14C10.91 10.36 10.89 10.7 11.09 10.94L11.94 12.01C12.13 12.24 12.15 12.64 12.01 12.91C11.84 13.25 11.69 13.6 11.57 13.96C11.48 14.24 11.18 14.51 10.89 14.54L9.53 14.69C9.23 14.72 9 14.98 9 15.29V16.72C9 17.03 9.23 17.28 9.53 17.32L10.89 17.47C11.19 17.5 11.48 17.77 11.57 18.05C11.69 18.42 11.83 18.77 12.01 19.1C12.15 19.37 12.13 19.76 11.94 20L11.09 21.07C10.9 21.31 10.92 21.65 11.13 21.87L12.14 22.88C12.36 23.1 12.7 23.12 12.94 22.92L14 22.07C14.23 21.88 14.63 21.86 14.9 22C15.24 22.17 15.59 22.32 15.95 22.44C16.23 22.53 16.5 22.83 16.53 23.12L16.68 24.47C16.71 24.77 16.97 25 17.28 25H18.71C19.02 25 19.27 24.77 19.31 24.47L19.46 23.12C19.49 22.82 19.76 22.53 20.04 22.44C20.41 22.32 20.76 22.18 21.09 22C21.36 21.86 21.75 21.88 21.99 22.07L23.05 22.92C23.29 23.11 23.63 23.09 23.85 22.88L24.86 21.87C25.08 21.65 25.1 21.31 24.9 21.07L24.05 20C23.86 19.77 23.84 19.37 23.98 19.1C24.15 18.76 24.3 18.41 24.42 18.05C24.51 17.77 24.81 17.5 25.1 17.47L26.46 17.32C26.76 17.29 26.99 17.03 26.99 16.72V15.29C26.99 14.98 26.76 14.73 26.46 14.69H26.47ZM18 19.5C16.07 19.5 14.5 17.93 14.5 16C14.5 14.07 16.07 12.5 18 12.5C19.93 12.5 21.5 14.07 21.5 16C21.5 17.93 19.93 19.5 18 19.5Z" fill="white"/>
<path d="M8 16.7102V15.2802C8 15.1802 8 15.0902 8.03 14.9902H1C0.45 14.9902 0 15.4402 0 15.9902C0 16.5402 0.45 16.9902 1 16.9902H8.03C8.01 16.9002 8 16.8002 8 16.7002V16.7102Z" fill="white"/>
<path d="M10.31 11.57C9.95 11.11 9.88 10.52 10.08 10H1C0.45 10 0 10.45 0 11C0 11.55 0.45 12 1 12H10.65L10.3 11.57H10.31Z" fill="white"/>
</svg>
